<?xml version="1.0" standalone="no"?>
<!DOCTYPE svg PUBLIC "-//W3C//DTD SVG 20010904//EN"
 "http://www.w3.org/TR/2001/REC-SVG-20010904/DTD/svg10.dtd">
<svg version="1.0" xmlns="http://www.w3.org/2000/svg"
 width="256.000000pt" height="256.000000pt" viewBox="0 0 256.000000 256.000000"
 preserveAspectRatio="xMidYMid meet">
<metadata>
Created by potrace 1.16, written by Peter Selinger 2001-2019
</metadata>
<g transform="translate(0.000000,256.000000) scale(0.100000,-0.100000)"
fill="#323840" stroke="none">
<rect width="2560" height="2560" fill="#fff0b7"/>
<path d="M0 1280 l0 -1280 1280 0 1280 0 0 1280 0 1280 -1280 0 -1280 0 0
-1280z m1470 1219 c114 -42 191 -90 283 -179 78 -74 207 -243 207 -270 0 -9
-49 -26 -53 -19 -2 2 -20 31 -41 64 -50 77 -164 195 -241 250 -62 44 -154 84
-238 106 -108 27 -295 -11 -424 -87 -58 -34 -172 -142 -228 -216 -104 -138
-197 -357 -231 -543 -26 -143 -30 -439 -9 -582 10 -65 21 -128 26 -140 7 -19
5 -23 -10 -23 -28 0 -39 20 -58 106 -26 116 -25 518 0 659 69 372 285 705 542
831 128 63 180 75 305 70 78 -3 122 -10 170 -27z m-66 -141 c95 -16 203 -77
291 -165 47 -46 155 -184 155 -196 0 -3 -9 -11 -19 -16 -16 -9 -25 -3 -60 44
-92 121 -175 192 -283 239 l-58 26 44 -58 c54 -69 124 -209 160 -316 25 -74
25 -80 10 -98 -22 -24 -29 -23 -32 6 -2 29 -54 170 -83 228 -39 76 -95 152
-155 208 l-59 55 -3 -342 c-1 -189 -6 -343 -10 -342 -4 0 -15 4 -25 8 -17 6
-18 27 -17 334 0 181 -3 327 -8 327 -5 0 -27 -13 -48 -28 -47 -35 -110 -115
-158 -202 -36 -66 -106 -265 -106 -301 0 -14 -7 -19 -25 -19 -24 0 -26 2 -19
38 28 159 137 393 219 475 15 15 25 27 21 27 -25 0 -173 -88 -220 -131 -165
-151 -284 -402 -327 -691 -11 -73 -32 -127 -50 -128 -17 -1 21 254 56 375 77
264 255 510 436 599 127 63 208 72 373 44z m656 -418 c0 -5 -8 -10 -18 -10
-11 0 -27 -9 -37 -20 -15 -16 -16 -23 -6 -33 9 -9 21 -7 53 11 39 21 42 21 60
6 45 -41 8 -110 -113 -211 -187 -157 -461 -375 -514 -408 -16 -11 -84 -62
-150 -115 -168 -133 -256 -190 -440 -280 -168 -83 -195 -93 -202 -73 -4 11 3
19 55 60 23 18 22 18 -50 18 -119 0 -183 42 -99 65 36 9 173 3 220 -11 9 -2
19 7 25 24 15 40 -8 57 -89 67 -37 5 -71 12 -76 17 -4 4 -27 55 -50 112 -42
107 -43 122 -7 144 12 8 38 -7 114 -68 55 -42 114 -84 133 -92 31 -13 35 -13
74 13 22 14 82 64 133 110 l93 84 73 -35 c76 -36 149 -52 191 -41 14 3 61 32
105 65 98 73 117 110 106 208 -5 46 -13 72 -30 93 -13 15 -24 33 -24 38 0 6
17 24 39 39 21 15 80 64 132 107 111 94 173 126 247 126 28 0 52 -4 52 -10z
m-1009 -316 c101 -30 220 -66 264 -80 44 -13 86 -26 93 -29 10 -3 -3 -26 -40
-72 -31 -39 -45 -64 -35 -60 10 4 23 7 27 7 5 0 30 30 56 68 56 79 113 142
130 142 7 0 20 -24 30 -52 9 -29 19 -58 21 -63 4 -13 -112 -108 -161 -132 -30
-14 -41 -15 -78 -4 -59 17 -208 91 -363 179 -126 72 -175 106 -175 124 0 5 10
13 23 18 12 5 23 9 23 9 1 1 84 -24 185 -55z m1061 -59 c20 -110 17 -488 -5
-598 -71 -354 -247 -659 -462 -801 -313 -208 -690 -123 -944 214 -62 83 -165
275 -155 291 3 5 13 9 23 9 13 0 39 -37 87 -121 133 -236 301 -375 511 -423
94 -21 153 -20 247 4 345 88 602 468 657 973 12 109 7 319 -12 438 -10 63 -9
73 7 90 23 25 29 15 46 -76z m-101 -129 c43 -390 -85 -822 -309 -1042 -72 -72
-125 -107 -214 -146 -62 -27 -88 -32 -173 -36 -123 -5 -199 13 -305 71 -96 52
-174 127 -250 238 -74 108 -104 170 -87 181 21 13 24 10 71 -71 99 -172 260
-318 379 -345 27 -6 26 -5 -21 56 -58 74 -124 201 -162 313 -41 119 -42 129
-21 142 17 11 22 2 55 -101 41 -128 90 -226 153 -307 39 -50 113 -119 127
-119 3 0 6 163 6 362 0 322 2 363 17 380 9 10 19 18 22 18 3 0 5 -167 3 -372
-1 -209 1 -375 6 -380 15 -15 128 98 177 176 82 132 146 323 169 505 10 82 14
95 33 102 21 8 22 6 17 -44 -11 -101 -33 -223 -59 -312 -35 -125 -122 -297
-185 -367 -57 -65 -51 -72 32 -34 127 56 276 213 354 371 63 129 105 299 128
523 l4 42 -78 0 -78 0 -4 30 -5 30 85 0 84 0 -6 38 c-15 106 -18 213 -5 228
12 14 14 13 21 -7 5 -12 13 -67 19 -123z m-1129 72 c13 -11 14 -29 9 -106 -3
-52 -3 -96 1 -98 4 -3 23 -2 42 1 19 4 42 3 51 -2 14 -8 13 -13 -10 -37 -24
-26 -31 -28 -76 -24 -27 3 -52 8 -55 11 -8 8 7 267 15 267 4 0 14 -6 23 -12z
m-574 -160 c-93 -105 -122 -168 -122 -263 0 -83 22 -133 83 -188 79 -71 180
-102 316 -95 57 2 70 0 70 -12 0 -49 -192 -62 -297 -21 -97 37 -149 79 -182
144 -76 148 -21 336 135 467 34 27 63 50 65 50 3 0 -28 -37 -68 -82z m1437
-50 c8 -28 15 -59 15 -67 0 -21 -106 -104 -121 -96 -11 7 -4 90 11 131 10 25
59 84 71 84 4 0 15 -23 24 -52z m-139 -64 c-32 -149 -89 -304 -100 -274 -3 8
-9 64 -13 125 l-8 110 64 58 c35 32 65 56 68 54 2 -2 -3 -35 -11 -73z m664
-334 c21 0 69 -53 75 -83 4 -17 17 -40 28 -49 20 -15 20 -18 5 -35 -9 -10 -20
-30 -23 -46 -4 -15 -20 -41 -35 -57 -54 -58 -138 -30 -161 53 -7 23 -19 48
-28 55 -14 12 -14 14 -1 25 9 7 24 34 34 61 13 34 29 54 52 68 19 11 35 27 35
36 1 10 4 7 6 -5 2 -13 8 -23 13 -23z m-1906 -291 c4 -17 17 -31 36 -39 16 -7
30 -15 30 -18 0 -3 -16 -20 -35 -37 -24 -23 -36 -44 -41 -74 -8 -53 -20 -52
-27 2 -4 33 -14 49 -43 73 -33 29 -35 32 -19 45 52 43 65 60 65 87 0 16 3 32
7 36 7 7 11 -3 27 -75z"/>
</g>
</svg>
